<svg width="399" height="399" viewBox="0 0 399 399" fill="none" xmlns="http://www.w3.org/2000/svg">
<path fill-rule="evenodd" clip-rule="evenodd" d="M82.0753 0H276.31C321.447 0 358.385 36.9382 358.385 82.0753V276.31C358.385 281.722 357.854 287.003 356.834 292.122C355.804 291.265 354.774 290.398 353.765 289.519C323.03 262.678 303.607 223.202 303.607 179.193C303.607 110.478 247.907 54.7675 179.182 54.7675C110.468 54.7675 54.7566 110.468 54.7566 179.193C54.7566 247.907 110.457 303.618 179.182 303.618C222.79 303.618 261.94 322.683 288.771 352.93C289.91 354.21 291.027 355.522 292.122 356.845C287.003 357.854 281.711 358.396 276.31 358.396H82.0753C36.9382 358.396 0 321.458 0 276.321V82.0861C0 36.9491 36.9382 0.010845 82.0753 0.010845V0ZM342.064 325.275C341.988 325.373 341.912 325.471 341.836 325.579C341.912 325.481 341.988 325.384 342.064 325.275ZM293.087 356.65C292.903 356.694 292.719 356.726 292.534 356.769L293.087 356.65Z" fill="#F8F8F8"/>
<path fill-rule="evenodd" clip-rule="evenodd" d="M353.775 289.53C379.25 294.443 398.5 316.849 398.5 343.766C398.5 374.273 373.774 399 343.267 399C315.883 399 293.163 379.078 288.792 352.941C289.931 354.221 291.048 355.533 292.143 356.856C324.657 350.436 350.446 324.657 356.856 292.144C355.825 291.287 354.795 290.419 353.786 289.541L353.775 289.53Z" fill="#F8F8F8"/>
<path fill-rule="evenodd" clip-rule="evenodd" d="M238.841 163.76L119.437 163.836C119.025 146.386 146.029 117.257 179.085 117.181C214.472 117.094 240.164 148.978 238.841 163.749V163.76ZM91.869 190.417C137.31 191.502 184.171 190.439 229.785 190.439C240.001 190.439 254.252 191.307 263.936 190.569C269.023 190.179 267.57 187.63 267.591 177.002C267.7 116.595 198.324 69.0395 138.253 101.184C122.04 109.86 112.193 119.523 102.833 134.858C94.8622 147.926 87.6286 171.905 91.869 190.417Z" fill="#F8F8F8"/>
<path fill-rule="evenodd" clip-rule="evenodd" d="M100.176 218.744C128.058 270.616 189.376 283.034 236.032 246.898C241.866 242.387 255.271 227.865 256.887 220.133L234.383 209.027C230.512 213.495 229.308 217.259 224.655 221.683C183.845 260.552 134.208 234.394 123.97 207.455C119.729 208.528 103.462 216.38 100.165 218.744H100.176Z" fill="#F8F8F8"/>
</svg>
