<svg width="365" height="265" viewBox="0 0 365 265" fill="none" xmlns="http://www.w3.org/2000/svg">
<path fill-rule="evenodd" clip-rule="evenodd" d="M48.0753 0H242.31C287.447 0 324.385 36.9382 324.385 82.0753V276.31C324.385 281.722 323.854 287.003 322.834 292.122C321.804 291.265 320.774 290.398 319.765 289.519C289.03 262.678 269.607 223.202 269.607 179.193C269.607 110.478 213.907 54.7675 145.182 54.7675C76.4676 54.7675 20.7566 110.468 20.7566 179.193C20.7566 247.907 76.4568 303.618 145.182 303.618C188.79 303.618 227.94 322.683 254.771 352.93C255.91 354.21 257.027 355.522 258.122 356.845C253.003 357.854 247.711 358.396 242.31 358.396H48.0753C2.93822 358.396 -34 321.458 -34 276.321V82.0861C-34 36.9491 2.93822 0.010845 48.0753 0.010845V0ZM308.064 325.275C307.988 325.373 307.912 325.471 307.836 325.579C307.912 325.481 307.988 325.384 308.064 325.275ZM259.087 356.65C258.903 356.694 258.719 356.726 258.534 356.769L259.087 356.65Z" fill="#2374ED"/>
<path fill-rule="evenodd" clip-rule="evenodd" d="M204.841 163.76L85.4366 163.836C85.0245 146.386 112.029 117.257 145.084 117.181C180.472 117.094 206.164 148.978 204.841 163.749V163.76ZM57.8685 190.417C103.309 191.502 150.171 190.439 195.785 190.439C206.001 190.439 220.251 191.307 229.936 190.569C235.022 190.179 233.569 187.63 233.591 177.002C233.699 116.595 164.323 69.0396 104.253 101.184C88.0394 109.86 78.1921 119.523 68.8329 134.858C60.8618 147.926 53.6281 171.905 57.8685 190.417Z" fill="#2374ED"/>
<path fill-rule="evenodd" clip-rule="evenodd" d="M66.1754 218.745C94.058 270.616 155.376 283.034 202.031 246.898C207.866 242.387 221.27 227.865 222.886 220.133L200.383 209.027C196.511 213.496 195.307 217.259 190.655 221.684C149.845 260.552 100.207 234.394 89.9694 207.455C85.729 208.528 69.4614 216.38 66.1646 218.745H66.1754Z" fill="#2374ED"/>
</svg>
