<svg width="32" height="40" viewBox="0 0 32 40" fill="none" xmlns="http://www.w3.org/2000/svg">
<path fill-rule="evenodd" clip-rule="evenodd" d="M4.542 0.224C2.922 0.436 2.066 0.826 1.454 1.424C0.844 2.024 0.446 2.864 0.228 4.45C0.00399968 6.084 0 8.248 0 11.35V28.49C0.791954 27.9493 1.67065 27.5481 2.598 27.304C3.654 27.026 4.886 27.026 6.692 27.028H32V11.352C32 8.248 31.996 6.084 31.772 4.45C31.554 2.864 31.156 2.024 30.546 1.424C29.934 0.826 29.078 0.436 27.458 0.224C25.79 0.00399998 23.582 0 20.414 0H11.586C8.418 0 6.21 0.00399998 4.542 0.224ZM5.518 9.19C5.518 8.294 6.258 7.568 7.172 7.568H24.828C25.2619 7.56426 25.6797 7.73266 25.9897 8.0363C26.2997 8.33995 26.4767 8.75408 26.482 9.188C26.4772 9.62226 26.3004 10.0369 25.9904 10.341C25.6803 10.6451 25.2623 10.8137 24.828 10.81H7.172C6.73807 10.8137 6.32034 10.6453 6.01033 10.3417C5.70031 10.0381 5.52328 9.62391 5.518 9.19ZM7.172 15.136C6.73807 15.1323 6.32034 15.3007 6.01033 15.6043C5.70031 15.9079 5.52328 16.3221 5.518 16.756C5.518 17.652 6.258 18.378 7.172 18.378H18.206C18.6403 18.3823 19.0585 18.2141 19.369 17.9104C19.6794 17.6067 19.8567 17.1923 19.862 16.758C19.8573 16.3234 19.6802 15.9084 19.3697 15.6043C19.0592 15.3002 18.6406 15.1317 18.206 15.136H7.172Z" fill="#FF7300"/>
<path d="M6.94606 30.27H32.0001C31.9941 32.53 31.9581 34.218 31.7741 35.55C31.5561 37.136 31.1581 37.976 30.5481 38.576C29.9361 39.174 29.0801 39.564 27.4601 39.776C25.7921 39.996 23.5841 40 20.4161 40H11.5861C8.41806 40 6.21006 39.996 4.54206 39.778C2.92206 39.564 2.06606 39.174 1.45406 38.576C0.844059 37.976 0.446058 37.136 0.228058 35.55C0.146058 34.95 0.0920586 34.276 0.0600586 33.51C0.334189 32.7609 0.786369 32.0896 1.37763 31.5541C1.9689 31.0186 2.68151 30.6349 3.45406 30.436C4.03406 30.284 4.78806 30.27 6.94606 30.27Z" fill="#FF7300"/>
</svg>
