<svg width="35" height="41" viewBox="0 0 35 41" fill="none" xmlns="http://www.w3.org/2000/svg">
<path d="M25.5 40.32L20 34.32L22.32 32L25.5 35.18L32.68 28L35 30.82L25.5 40.32ZM4 40C2.93913 40 1.92172 39.5786 1.17157 38.8284C0.421427 38.0783 0 37.0609 0 36V4C0 1.78 1.78 0 4 0H6V14L11 11L16 14V0H28C29.0609 0 30.0783 0.421427 30.8284 1.17157C31.5786 1.92172 32 2.93913 32 4V22.68C29.6865 21.8646 27.1787 21.7773 24.814 22.4296C22.4493 23.082 20.3411 24.4428 18.7729 26.329C17.2046 28.2152 16.2516 30.5365 16.0419 32.9805C15.8322 35.4246 16.376 37.8742 17.6 40H4Z" fill="black"/>
</svg>
