<svg width="350" height="87" viewBox="0 0 350 87" fill="none" xmlns="http://www.w3.org/2000/svg">
<path fill-rule="evenodd" clip-rule="evenodd" d="M18.4534 1H59.7559C69.3551 1 77.2087 8.8536 77.2087 18.4528V59.7553C77.2087 60.9052 77.0948 62.0293 76.88 63.1186C76.6595 62.9369 76.4419 62.7518 76.2271 62.5639C69.6911 56.8564 65.5621 48.4626 65.5621 39.1041C65.5621 24.4918 53.7169 12.6466 39.1046 12.6466C24.4924 12.6466 12.6472 24.4918 12.6472 39.1041C12.6472 53.7163 24.4924 65.5615 39.1046 65.5615C48.3774 65.5615 56.7033 69.6153 62.4068 76.0475C62.6491 76.3207 62.8864 76.5978 63.1186 76.8794C62.0293 77.0943 60.9052 77.2081 59.7553 77.2081H18.4528C8.8536 77.2081 1 69.3545 1 59.7553V18.4528C1 8.8536 8.8536 1 18.4528 1H18.4534ZM73.7393 70.1673C73.7236 70.1886 73.7068 70.2099 73.6911 70.2307C73.7073 70.2094 73.7236 70.1886 73.7393 70.1673ZM63.3256 76.8379C63.2864 76.8463 63.2477 76.8542 63.2084 76.862L63.3256 76.8379Z" fill="#FF7300" stroke="#FF7300" stroke-width="0.639625" stroke-miterlimit="22.9256" stroke-linecap="round" stroke-linejoin="round"/>
<path fill-rule="evenodd" clip-rule="evenodd" d="M76.2289 62.5655C81.6464 63.61 85.7384 68.3756 85.7384 74.0977C85.7384 80.5849 80.4797 85.8436 73.9925 85.8436C68.17 85.8436 63.3387 81.6074 62.4087 76.0486C62.651 76.3218 62.8883 76.5989 63.1205 76.8805C70.0351 75.5163 75.5171 70.0337 76.8818 63.1191C76.662 62.9374 76.4443 62.7529 76.2289 62.5649V62.5655Z" fill="#FF7300" stroke="#FF7300" stroke-width="0.639625" stroke-miterlimit="22.9256" stroke-linecap="round" stroke-linejoin="round"/>
<path fill-rule="evenodd" clip-rule="evenodd" d="M51.7874 35.8221L26.398 35.8389C26.3105 32.1284 32.0533 25.9346 39.0807 25.9183C46.6061 25.9009 52.0685 32.6798 51.788 35.8221H51.7874ZM20.5352 41.4909C30.1989 41.7214 40.1638 41.4954 49.8623 41.4954C52.0354 41.4954 55.0661 41.6799 57.1253 41.5229C58.2079 41.4398 57.8977 40.898 57.9016 38.638C57.924 25.7927 43.1727 15.6808 30.398 22.5168C26.95 24.3623 24.8566 26.4164 22.8669 29.6771C21.1712 32.4565 19.6343 37.556 20.5346 41.4909H20.5352Z" fill="#FF7300"/>
<path fill-rule="evenodd" clip-rule="evenodd" d="M22.3023 47.5134C28.2319 58.5441 41.2696 61.1833 51.1914 53.4997C52.4316 52.5394 55.2828 49.452 55.6267 47.8085L50.8419 45.4464C50.0191 46.3961 49.7621 47.1965 48.7732 48.1389C40.0962 56.4042 29.54 50.8414 27.3636 45.1121C26.4611 45.341 23.0029 47.0097 22.3018 47.5134H22.3023Z" fill="#FF7300"/>
<path d="M133.862 64.1535C129.602 64.1535 125.863 63.32 122.646 61.6534C119.428 59.9864 116.939 57.7062 115.18 54.8123C113.42 51.9185 112.541 48.6196 112.541 44.9153C112.541 41.1649 113.409 37.8425 115.145 34.9486C116.881 32.0548 119.254 29.7858 122.264 28.1423C125.273 26.4988 128.677 25.677 132.473 25.677C136.131 25.677 139.43 26.4528 142.37 28.0037C145.31 29.5547 147.637 31.7771 149.351 34.671C151.064 37.5648 151.92 41.0258 151.92 45.0544C151.92 45.4711 151.897 45.9457 151.851 46.478C151.805 47.0103 151.758 47.5084 151.711 47.9712H121.361V41.6512H146.016L141.849 43.5264C141.849 41.5816 141.455 39.8916 140.668 38.4561C139.881 37.0207 138.793 35.8977 137.404 35.0877C136.015 34.2772 134.394 33.8722 132.542 33.8722C130.69 33.8722 129.058 34.2772 127.646 35.0877C126.234 35.8983 125.134 37.0325 124.347 38.4909C123.56 39.9493 123.166 41.6742 123.166 43.6649V45.332C123.166 47.3693 123.618 49.1638 124.52 50.7147C125.423 52.2657 126.697 53.4465 128.34 54.257C129.984 55.0676 131.917 55.4725 134.14 55.4725C136.13 55.4725 137.879 55.1719 139.383 54.5694C140.888 53.9676 142.266 53.0645 143.516 51.8607L149.28 58.1117C147.567 60.0565 145.414 61.5497 142.821 62.5913C140.228 63.633 137.242 64.1541 133.862 64.1541V64.1535Z" fill="#FF7300"/>
<path d="M183.452 64.4312C179.655 64.4312 176.125 63.8063 172.861 62.556C169.596 61.3056 166.772 59.5466 164.387 57.2776C162.003 55.0086 160.15 52.3465 158.831 49.2905C157.512 46.2345 156.852 42.9009 156.852 39.2891C156.852 35.6773 157.511 32.3436 158.831 29.2877C160.151 26.2317 162.014 23.5696 164.422 21.3006C166.829 19.0316 169.654 17.2725 172.895 16.0222C176.136 14.7719 179.656 14.147 183.452 14.147C187.295 14.147 190.825 14.7719 194.044 16.0222C197.262 17.2725 200.063 19.0204 202.447 21.2658C204.832 23.5112 206.695 26.1622 208.038 29.2181C209.381 32.2741 210.053 35.6313 210.053 39.2891C210.053 42.9004 209.381 46.2458 208.038 49.3253C206.695 52.4042 204.832 55.067 202.447 57.3124C200.063 59.5578 197.262 61.3056 194.044 62.556C190.825 63.8063 187.295 64.4312 183.452 64.4312ZM199.357 74.7798C197.458 74.7798 195.664 74.5711 193.974 74.1549C192.284 73.7381 190.617 73.0667 188.973 72.1406C187.33 71.2145 185.616 69.9642 183.833 68.3902C182.051 66.8162 180.118 64.8715 178.034 62.556L189.841 59.5696C191.091 61.2826 192.249 62.6485 193.314 63.6672C194.379 64.6858 195.409 65.4032 196.405 65.82C197.4 66.2368 198.453 66.4449 199.565 66.4449C202.528 66.4449 205.167 65.2411 207.482 62.8331L212.483 68.8059C209.195 72.7879 204.82 74.7786 199.357 74.7786V74.7798ZM183.452 54.8465C185.628 54.8465 187.631 54.4763 189.46 53.7353C191.289 52.9943 192.898 51.9297 194.286 50.5403C195.675 49.1514 196.752 47.4961 197.516 45.5743C198.28 43.6526 198.662 41.5575 198.662 39.2891C198.662 36.9741 198.28 34.8673 197.516 32.9691C196.752 31.0709 195.675 29.4268 194.286 28.0379C192.898 26.6491 191.288 25.5839 189.46 24.8434C187.631 24.1024 185.628 23.7322 183.452 23.7322C181.276 23.7322 179.262 24.1024 177.41 24.8434C175.557 25.5844 173.949 26.6491 172.583 28.0379C171.217 29.4268 170.152 31.0709 169.388 32.9691C168.624 34.8673 168.242 36.9741 168.242 39.2891C168.242 41.5581 168.624 43.6531 169.388 45.5743C170.152 47.4961 171.217 49.1514 172.583 50.5403C173.949 51.9291 175.557 52.9943 177.41 53.7353C179.262 54.4763 181.276 54.8465 183.452 54.8465Z" fill="#FF7300"/>
<path d="M233.527 64.1537C230.425 64.1537 227.658 63.5518 225.228 62.3481C222.797 61.1443 220.91 59.3039 219.568 56.8263C218.225 54.3492 217.553 51.1889 217.553 47.346V26.232H228.388V45.7484C228.388 48.8504 229.048 51.1311 230.368 52.5896C231.688 54.048 233.551 54.7772 235.959 54.7772C237.626 54.7772 239.107 54.4182 240.403 53.7008C241.7 52.9833 242.718 51.8716 243.459 50.3672C244.2 48.8622 244.57 46.9758 244.57 44.7068V26.2325H255.405V63.5984H245.126V53.3193L247.002 56.3057C245.751 58.8989 243.911 60.8549 241.48 62.1742C239.049 63.4941 236.398 64.1537 233.527 64.1537Z" fill="#FF7300"/>
<path d="M287.562 64.1536C284.275 64.1536 281.45 63.4591 279.089 62.0703C276.727 60.6814 274.922 58.5628 273.671 55.7155C272.421 52.8676 271.796 49.2681 271.796 44.9159C271.796 40.5171 272.456 36.9058 273.776 34.0809C275.095 31.2566 276.936 29.1498 279.297 27.7609C281.659 26.372 284.414 25.6776 287.562 25.6776C291.081 25.6776 294.241 26.4646 297.042 28.0391C299.844 29.6137 302.066 31.8361 303.71 34.7069C305.353 37.5778 306.176 40.9809 306.176 44.9164C306.176 48.8059 305.354 52.1861 303.71 55.0564C302.066 57.9272 299.844 60.1614 297.042 61.7584C294.241 63.3559 291.081 64.1547 287.562 64.1547V64.1536ZM265.476 63.5977V12.0638H276.311V33.8027L275.617 44.8458L275.825 55.9584V63.5983H265.476V63.5977ZM285.687 55.2634C287.493 55.2634 289.102 54.8466 290.514 54.0131C291.926 53.1795 293.06 51.9875 293.917 50.436C294.774 48.885 295.202 47.0446 295.202 44.9148C295.202 42.7383 294.774 40.8867 293.917 39.3587C293.06 37.8308 291.926 36.65 290.514 35.8164C289.101 34.9829 287.493 34.5661 285.687 34.5661C283.881 34.5661 282.261 34.9829 280.825 35.8164C279.39 36.65 278.256 37.8308 277.422 39.3587C276.589 40.8867 276.172 42.7389 276.172 44.9148C276.172 47.0446 276.589 48.885 277.422 50.436C278.256 51.987 279.39 53.1795 280.825 54.0131C282.261 54.8466 283.881 55.2634 285.687 55.2634Z" fill="#FF7300"/>
<path d="M331.942 64.1535C327.682 64.1535 323.943 63.32 320.725 61.6534C317.507 59.9864 315.018 57.7062 313.259 54.8123C311.5 51.9185 310.62 48.6196 310.62 44.9153C310.62 41.1649 311.488 37.8425 313.225 34.9486C314.961 32.0548 317.334 29.7858 320.343 28.1423C323.353 26.4988 326.756 25.677 330.553 25.677C334.211 25.677 337.509 26.4528 340.45 28.0037C343.39 29.5547 345.716 31.7771 347.43 34.671C349.143 37.5648 350 41.0258 350 45.0544C350 45.4711 349.977 45.9457 349.93 46.478C349.884 47.0103 349.838 47.5084 349.791 47.9712H319.44V41.6512H344.096L339.929 43.5264C339.929 41.5816 339.535 39.8916 338.748 38.4561C337.961 37.0207 336.873 35.8977 335.483 35.0877C334.095 34.2772 332.474 33.8722 330.622 33.8722C328.77 33.8722 327.137 34.2772 325.725 35.0877C324.314 35.8983 323.214 37.0325 322.427 38.4909C321.64 39.9493 321.246 41.6742 321.246 43.6649V45.332C321.246 47.3693 321.697 49.1638 322.6 50.7147C323.503 52.2657 324.776 53.4465 326.42 54.257C328.063 55.0676 329.997 55.4725 332.219 55.4725C334.21 55.4725 335.959 55.1719 337.463 54.5694C338.968 53.9676 340.346 53.0645 341.595 51.8607L347.36 58.1117C345.647 60.0565 343.494 61.5497 340.901 62.5913C338.308 63.633 335.321 64.1541 331.942 64.1541V64.1535Z" fill="#FF7300"/>
</svg>
