<svg width="246" height="83" viewBox="0 0 246 83" fill="none" xmlns="http://www.w3.org/2000/svg">
<path fill-rule="evenodd" clip-rule="evenodd" d="M12.201 0H41.074C47.7845 0 53.2746 5.46137 53.2746 12.1366V40.8582C53.2746 41.6579 53.195 42.4396 53.0448 43.1971C52.8907 43.0707 52.7386 42.942 52.5884 42.8113C48.0194 38.8424 45.1329 33.0054 45.1329 26.4974C45.1329 16.3361 36.8524 8.09902 26.6375 8.09902C16.4226 8.09902 8.1421 16.3361 8.1421 26.4974C8.1421 36.6588 16.4226 44.8959 26.6375 44.8959C33.1197 44.8959 38.9401 47.7149 42.9272 52.1878C43.0966 52.3778 43.2625 52.5705 43.4248 52.7663C42.6633 52.9157 41.8775 52.9949 41.0736 52.9949H12.2006C5.49016 52.9949 0 47.5335 0 40.8582V12.1366C0 5.46137 5.49016 0 12.2006 0H12.201ZM50.8493 48.0987C50.8384 48.1135 50.8266 48.1284 50.8156 48.1428C50.827 48.128 50.8384 48.1135 50.8493 48.0987ZM43.5695 52.7374C43.5421 52.7433 43.515 52.7487 43.4876 52.7542L43.5695 52.7374Z" fill="#FF7300"/>
<path fill-rule="evenodd" clip-rule="evenodd" d="M52.5894 42.8125C56.3766 43.5388 59.2371 46.8528 59.2371 50.8319C59.2371 55.3431 55.561 59 51.026 59C46.9557 59 43.5784 56.0542 42.9282 52.1886C43.0976 52.3785 43.2635 52.5712 43.4258 52.7671C48.2596 51.8184 52.0918 48.0059 53.0459 43.1975C52.8921 43.0711 52.74 42.9428 52.5894 42.8121V42.8125Z" fill="#FF7300"/>
<path fill-rule="evenodd" clip-rule="evenodd" d="M35.5039 24.2152L17.7551 24.2269C17.6939 21.6466 21.7085 17.3394 26.6211 17.3281C31.8818 17.316 35.7003 22.03 35.5043 24.2152H35.5039ZM13.6566 28.1572C20.4121 28.3176 27.3783 28.1604 34.1581 28.1604C35.6772 28.1604 37.7959 28.2887 39.2354 28.1795C39.9922 28.1218 39.7753 27.7449 39.7781 26.1734C39.7937 17.2408 29.4816 10.209 20.5513 14.9627C18.1409 16.2461 16.6775 17.6745 15.2867 19.942C14.1013 21.8748 13.0268 25.4209 13.6562 28.1572H13.6566Z" fill="#FF7300"/>
<path fill-rule="evenodd" clip-rule="evenodd" d="M14.892 32.3454C19.0372 40.0161 28.1513 41.8514 35.0873 36.5082C35.9543 35.8404 37.9474 33.6935 38.1878 32.5505L34.843 30.908C34.2677 31.5684 34.0881 32.125 33.3968 32.7803C27.331 38.528 19.9516 34.6597 18.4301 30.6755C17.7992 30.8346 15.3818 31.9951 14.8916 32.3454H14.892Z" fill="#FF7300"/>
<path d="M92.8792 43.9168C89.9014 43.9168 87.2875 43.3371 85.0383 42.1782C82.7886 41.019 81.0488 39.4333 79.8191 37.4209C78.589 35.4086 77.9741 33.1146 77.9741 30.5386C77.9741 27.9306 78.5811 25.6202 79.7948 23.6078C81.0084 21.5954 82.6675 20.0176 84.7712 18.8747C86.875 17.7318 89.2544 17.1603 91.9083 17.1603C94.4654 17.1603 96.7715 17.6998 98.827 18.7783C100.882 19.8569 102.509 21.4023 103.707 23.4147C104.904 25.4271 105.503 27.8338 105.503 30.6353C105.503 30.9251 105.487 31.2551 105.454 31.6253C105.422 31.9955 105.39 32.3418 105.357 32.6637H84.1399V28.2687H101.376L98.4627 29.5727C98.4627 28.2204 98.1874 27.0451 97.6373 26.0469C97.0871 25.0487 96.3264 24.2678 95.3551 23.7045C94.3842 23.1409 93.2514 22.8593 91.9566 22.8593C90.6618 22.8593 89.5207 23.1409 88.5337 23.7045C87.5467 24.2682 86.7777 25.0569 86.2276 26.0711C85.6774 27.0853 85.4022 28.2847 85.4022 29.6691V30.8284C85.4022 32.2451 85.7178 33.4929 86.3488 34.5715C86.9801 35.65 87.8702 36.4711 89.0191 37.0348C90.1681 37.5984 91.5197 37.8801 93.0733 37.8801C94.465 37.8801 95.6872 37.671 96.7389 37.252C97.791 36.8335 98.7541 36.2055 99.6277 35.3684L103.658 39.7153C102.46 41.0677 100.955 42.1061 99.1423 42.8304C97.3295 43.5548 95.2418 43.9172 92.8792 43.9172V43.9168Z" fill="#FF7300"/>
<path d="M127.545 44.1098C124.891 44.1098 122.423 43.6753 120.141 42.8058C117.859 41.9364 115.884 40.7131 114.218 39.1353C112.551 37.5575 111.256 35.7062 110.334 33.5811C109.411 31.456 108.95 29.1378 108.95 26.6261C108.95 24.1145 109.411 21.7963 110.334 19.6712C111.256 17.5461 112.559 15.6948 114.242 14.117C115.925 12.5392 117.9 11.3159 120.165 10.4464C122.431 9.57697 124.891 9.14244 127.545 9.14244C130.232 9.14244 132.7 9.57697 134.949 10.4464C137.199 11.3159 139.157 12.5314 140.824 14.0928C142.491 15.6543 143.794 17.4977 144.732 19.6228C145.671 21.7479 146.141 24.0825 146.141 26.6261C146.141 29.1374 145.671 31.4638 144.732 33.6053C143.794 35.7464 142.491 37.598 140.824 39.1595C139.157 40.7209 137.199 41.9364 134.949 42.8058C132.7 43.6753 130.232 44.1098 127.545 44.1098ZM138.663 51.3062C137.336 51.3062 136.082 51.1611 134.901 50.8717C133.719 50.5819 132.554 50.115 131.405 49.471C130.256 48.827 129.058 47.9575 127.812 46.863C126.566 45.7684 125.214 44.4161 123.758 42.8058L132.011 40.7291C132.885 41.9204 133.694 42.8702 134.439 43.5786C135.184 44.2869 135.904 44.7858 136.6 45.0757C137.296 45.3655 138.032 45.5102 138.809 45.5102C140.881 45.5102 142.725 44.6731 144.344 42.9985L147.84 47.152C145.541 49.9211 142.483 51.3055 138.663 51.3055V51.3062ZM127.545 37.4447C129.067 37.4447 130.466 37.1873 131.745 36.672C133.024 36.1567 134.148 35.4164 135.119 34.4502C136.09 33.4844 136.842 32.3333 137.376 30.9969C137.911 29.6605 138.178 28.2036 138.178 26.6261C138.178 25.0163 137.911 23.5512 137.376 22.2312C136.842 20.9112 136.09 19.7679 135.119 18.8021C134.148 17.8363 133.023 17.0956 131.745 16.5807C130.466 16.0654 129.066 15.8079 127.545 15.8079C126.024 15.8079 124.616 16.0654 123.321 16.5807C122.026 17.096 120.902 17.8363 119.947 18.8021C118.992 19.7679 118.247 20.9112 117.713 22.2312C117.179 23.5512 116.912 25.0163 116.912 26.6261C116.912 28.204 117.179 29.6609 117.713 30.9969C118.247 32.3333 118.992 33.4844 119.947 34.4502C120.902 35.416 122.026 36.1567 123.321 36.672C124.616 37.1873 126.024 37.4447 127.545 37.4447Z" fill="#FF7300"/>
<path d="M162.551 43.9169C160.382 43.9169 158.448 43.4983 156.749 42.6612C155.05 41.8242 153.731 40.5443 152.792 38.8214C151.854 37.0989 151.384 34.9012 151.384 32.2288V17.5462H158.959V31.1179C158.959 33.275 159.42 34.861 160.342 35.8752C161.265 36.8894 162.568 37.3965 164.251 37.3965C165.416 37.3965 166.452 37.1468 167.358 36.6479C168.264 36.149 168.976 35.3759 169.494 34.3297C170.012 33.2832 170.271 31.9714 170.271 30.3936V17.5466H177.845V43.5307H170.66V36.3827L171.97 38.4594C171.096 40.2627 169.81 41.6229 168.11 42.5403C166.411 43.4582 164.558 43.9169 162.551 43.9169Z" fill="#FF7300"/>
<path d="M200.324 43.9168C198.026 43.9168 196.052 43.4339 194.401 42.4681C192.75 41.5023 191.488 40.029 190.614 38.049C189.74 36.0686 189.303 33.5655 189.303 30.539C189.303 27.48 189.764 24.9688 190.687 23.0044C191.609 21.0404 192.896 19.5753 194.547 18.6095C196.198 17.6437 198.123 17.1607 200.324 17.1607C202.785 17.1607 204.993 17.708 206.952 18.8029C208.91 19.8979 210.464 21.4433 211.612 23.4397C212.761 25.4361 213.336 27.8026 213.336 30.5394C213.336 33.2441 212.762 35.5947 211.612 37.5906C210.464 39.587 208.91 41.1407 206.952 42.2512C204.993 43.3621 202.784 43.9176 200.324 43.9176V43.9168ZM184.885 43.5302V7.69375H192.459V22.8109L191.974 30.4902L192.119 38.2179V43.5306H184.885V43.5302ZM199.013 37.7346C200.276 37.7346 201.401 37.4448 202.388 36.8651C203.375 36.2855 204.168 35.4566 204.767 34.3776C205.366 33.2991 205.665 32.0193 205.665 30.5382C205.665 29.0247 205.366 27.7371 204.767 26.6745C204.168 25.612 203.375 24.7909 202.388 24.2113C201.4 23.6316 200.276 23.3418 199.013 23.3418C197.751 23.3418 196.618 23.6316 195.615 24.2113C194.611 24.7909 193.819 25.612 193.236 26.6745C192.653 27.7371 192.362 29.0251 192.362 30.5382C192.362 32.0193 192.653 33.2991 193.236 34.3776C193.819 35.4562 194.611 36.2855 195.615 36.8651C196.618 37.4448 197.751 37.7346 199.013 37.7346Z" fill="#FF7300"/>
<path d="M231.349 43.9168C228.371 43.9168 225.757 43.3371 223.508 42.1782C221.258 41.019 219.519 39.4333 218.289 37.4209C217.059 35.4086 216.444 33.1146 216.444 30.5386C216.444 27.9306 217.051 25.6202 218.264 23.6078C219.478 21.5954 221.137 20.0176 223.241 18.8747C225.345 17.7318 227.724 17.1603 230.378 17.1603C232.935 17.1603 235.241 17.6998 237.297 18.7783C239.352 19.8569 240.978 21.4023 242.176 23.4147C243.374 25.4271 243.973 27.8338 243.973 30.6353C243.973 30.9251 243.957 31.2551 243.924 31.6253C243.892 31.9955 243.859 32.3418 243.827 32.6637H222.61V28.2687H239.846L236.932 29.5727C236.932 28.2204 236.657 27.0451 236.107 26.0469C235.557 25.0487 234.796 24.2678 233.825 23.7045C232.854 23.1409 231.721 22.8593 230.426 22.8593C229.131 22.8593 227.99 23.1409 227.003 23.7045C226.016 24.2682 225.247 25.0569 224.697 26.0711C224.147 27.0853 223.872 28.2847 223.872 29.6691V30.8284C223.872 32.2451 224.188 33.4929 224.818 34.5715C225.45 35.65 226.34 36.4711 227.489 37.0348C228.638 37.5984 229.989 37.8801 231.543 37.8801C232.935 37.8801 234.157 37.671 235.209 37.252C236.261 36.8335 237.224 36.2055 238.097 35.3684L242.127 39.7153C240.93 41.0677 239.425 42.1061 237.612 42.8304C235.799 43.5548 233.712 43.9172 231.349 43.9172V43.9168Z" fill="#FF7300"/>
<path d="M4.7023 80.084C3.9743 80.084 3.2743 79.9673 2.6023 79.734C1.93963 79.4913 1.4263 79.1833 1.0623 78.81L1.4683 78.012C1.81363 78.348 2.27563 78.6327 2.8543 78.866C3.4423 79.09 4.0583 79.202 4.7023 79.202C5.3183 79.202 5.81763 79.1273 6.2003 78.978C6.5923 78.8193 6.87696 78.6093 7.0543 78.348C7.24096 78.0867 7.3343 77.7973 7.3343 77.48C7.3343 77.0973 7.2223 76.7893 6.9983 76.556C6.78363 76.3227 6.49896 76.1407 6.1443 76.01C5.78963 75.87 5.39763 75.7487 4.9683 75.646C4.53896 75.5433 4.10963 75.436 3.6803 75.324C3.25096 75.2027 2.8543 75.044 2.4903 74.848C2.13563 74.652 1.8463 74.3953 1.6223 74.078C1.40763 73.7513 1.3003 73.3267 1.3003 72.804C1.3003 72.3187 1.4263 71.8753 1.6783 71.474C1.93963 71.0633 2.3363 70.7367 2.8683 70.494C3.4003 70.242 4.08163 70.116 4.9123 70.116C5.46296 70.116 6.00896 70.1953 6.5503 70.354C7.09163 70.5033 7.5583 70.7133 7.9503 70.984L7.6003 71.81C7.1803 71.53 6.7323 71.3247 6.2563 71.194C5.78963 71.0633 5.33696 70.998 4.8983 70.998C4.3103 70.998 3.82496 71.0773 3.4423 71.236C3.05963 71.3947 2.77496 71.6093 2.5883 71.88C2.41096 72.1413 2.3223 72.44 2.3223 72.776C2.3223 73.1587 2.42963 73.4667 2.6443 73.7C2.8683 73.9333 3.15763 74.1153 3.5123 74.246C3.8763 74.3767 4.27296 74.4933 4.7023 74.596C5.13163 74.6987 5.5563 74.8107 5.9763 74.932C6.40563 75.0533 6.79763 75.212 7.1523 75.408C7.5163 75.5947 7.80563 75.8467 8.0203 76.164C8.2443 76.4813 8.3563 76.8967 8.3563 77.41C8.3563 77.886 8.22563 78.3293 7.9643 78.74C7.70296 79.1413 7.30163 79.468 6.7603 79.72C6.2283 79.9627 5.5423 80.084 4.7023 80.084ZM10.4036 80V72.65H11.3556V74.638L11.2016 74.288C11.4256 73.756 11.7849 73.3407 12.2796 73.042C12.7836 72.734 13.3762 72.58 14.0576 72.58C14.7762 72.58 15.3876 72.762 15.8916 73.126C16.3956 73.4807 16.7222 74.0173 16.8716 74.736L16.4796 74.582C16.6942 73.9847 17.0722 73.504 17.6136 73.14C18.1642 72.7667 18.8222 72.58 19.5876 72.58C20.1849 72.58 20.7029 72.6967 21.1416 72.93C21.5896 73.154 21.9349 73.4993 22.1776 73.966C22.4296 74.4327 22.5556 75.0207 22.5556 75.73V80H21.5616V75.828C21.5616 75.0533 21.3749 74.47 21.0016 74.078C20.6376 73.6767 20.1196 73.476 19.4476 73.476C18.9436 73.476 18.5049 73.5833 18.1316 73.798C17.7676 74.0033 17.4829 74.3067 17.2776 74.708C17.0816 75.1 16.9836 75.576 16.9836 76.136V80H15.9896V75.828C15.9896 75.0533 15.8029 74.47 15.4296 74.078C15.0562 73.6767 14.5336 73.476 13.8616 73.476C13.3669 73.476 12.9329 73.5833 12.5596 73.798C12.1862 74.0033 11.8969 74.3067 11.6916 74.708C11.4956 75.1 11.3976 75.576 11.3976 76.136V80H10.4036ZM29.8572 80V78.376L29.8152 78.11V75.394C29.8152 74.7687 29.6379 74.288 29.2832 73.952C28.9379 73.616 28.4199 73.448 27.7292 73.448C27.2532 73.448 26.8006 73.5273 26.3712 73.686C25.9419 73.8447 25.5779 74.0547 25.2792 74.316L24.8312 73.574C25.2046 73.2567 25.6526 73.014 26.1752 72.846C26.6979 72.6687 27.2486 72.58 27.8272 72.58C28.7792 72.58 29.5119 72.818 30.0252 73.294C30.5479 73.7607 30.8092 74.4747 30.8092 75.436V80H29.8572ZM27.3232 80.07C26.7726 80.07 26.2919 79.9813 25.8812 79.804C25.4799 79.6173 25.1719 79.3653 24.9572 79.048C24.7426 78.7213 24.6352 78.348 24.6352 77.928C24.6352 77.5453 24.7239 77.2 24.9012 76.892C25.0879 76.5747 25.3866 76.3227 25.7972 76.136C26.2172 75.94 26.7772 75.842 27.4772 75.842H30.0112V76.584H27.5052C26.7959 76.584 26.3012 76.71 26.0212 76.962C25.7506 77.214 25.6152 77.5267 25.6152 77.9C25.6152 78.32 25.7786 78.656 26.1052 78.908C26.4319 79.16 26.8892 79.286 27.4772 79.286C28.0372 79.286 28.5179 79.16 28.9192 78.908C29.3299 78.6467 29.6286 78.2733 29.8152 77.788L30.0392 78.474C29.8526 78.9593 29.5259 79.3467 29.0592 79.636C28.6019 79.9253 28.0232 80.07 27.3232 80.07ZM33.509 80V72.65H34.461V74.652L34.363 74.302C34.5684 73.742 34.9137 73.3173 35.399 73.028C35.8844 72.7293 36.4864 72.58 37.205 72.58V73.546C37.1677 73.546 37.1304 73.546 37.093 73.546C37.0557 73.5367 37.0184 73.532 36.981 73.532C36.2064 73.532 35.5997 73.77 35.161 74.246C34.7224 74.7127 34.503 75.38 34.503 76.248V80H33.509ZM41.6573 80.07C40.9666 80.07 40.4346 79.8833 40.0613 79.51C39.6879 79.1367 39.5013 78.6093 39.5013 77.928V71.026H40.4953V77.872C40.4953 78.3013 40.6026 78.6327 40.8173 78.866C41.0413 79.0993 41.3586 79.216 41.7693 79.216C42.2079 79.216 42.5719 79.09 42.8613 78.838L43.2113 79.552C43.0153 79.7293 42.7773 79.86 42.4973 79.944C42.2266 80.028 41.9466 80.07 41.6573 80.07ZM38.1853 73.476V72.65H42.7353V73.476H38.1853ZM48.8948 80V70.2H49.9308V79.104H55.4188V80H48.8948ZM57.139 80V70.2H57.993L62.473 77.844H62.025L66.463 70.2H67.317V80H66.323V71.754H66.561L62.473 78.754H61.983L57.867 71.754H58.133V80H57.139ZM73.2121 80.084C72.4841 80.084 71.7841 79.9673 71.1121 79.734C70.4494 79.4913 69.9361 79.1833 69.5721 78.81L69.9781 78.012C70.3234 78.348 70.7854 78.6327 71.3641 78.866C71.9521 79.09 72.5681 79.202 73.2121 79.202C73.8281 79.202 74.3274 79.1273 74.7101 78.978C75.1021 78.8193 75.3867 78.6093 75.5641 78.348C75.7507 78.0867 75.8441 77.7973 75.8441 77.48C75.8441 77.0973 75.7321 76.7893 75.5081 76.556C75.2934 76.3227 75.0087 76.1407 74.6541 76.01C74.2994 75.87 73.9074 75.7487 73.4781 75.646C73.0487 75.5433 72.6194 75.436 72.1901 75.324C71.7607 75.2027 71.3641 75.044 71.0001 74.848C70.6454 74.652 70.3561 74.3953 70.1321 74.078C69.9174 73.7513 69.8101 73.3267 69.8101 72.804C69.8101 72.3187 69.9361 71.8753 70.1881 71.474C70.4494 71.0633 70.8461 70.7367 71.3781 70.494C71.9101 70.242 72.5914 70.116 73.4221 70.116C73.9727 70.116 74.5187 70.1953 75.0601 70.354C75.6014 70.5033 76.0681 70.7133 76.4601 70.984L76.1101 71.81C75.6901 71.53 75.2421 71.3247 74.7661 71.194C74.2994 71.0633 73.8467 70.998 73.4081 70.998C72.8201 70.998 72.3347 71.0773 71.9521 71.236C71.5694 71.3947 71.2847 71.6093 71.0981 71.88C70.9207 72.1413 70.8321 72.44 70.8321 72.776C70.8321 73.1587 70.9394 73.4667 71.1541 73.7C71.3781 73.9333 71.6674 74.1153 72.0221 74.246C72.3861 74.3767 72.7827 74.4933 73.2121 74.596C73.6414 74.6987 74.0661 74.8107 74.4861 74.932C74.9154 75.0533 75.3074 75.212 75.6621 75.408C76.0261 75.5947 76.3154 75.8467 76.5301 76.164C76.7541 76.4813 76.8661 76.8967 76.8661 77.41C76.8661 77.886 76.7354 78.3293 76.4741 78.74C76.2127 79.1413 75.8114 79.468 75.2701 79.72C74.7381 79.9627 74.0521 80.084 73.2121 80.084ZM87.0434 80.084C86.3061 80.084 85.6247 79.9627 84.9994 79.72C84.3741 79.468 83.8327 79.118 83.3754 78.67C82.9181 78.222 82.5587 77.6947 82.2974 77.088C82.0454 76.4813 81.9194 75.8187 81.9194 75.1C81.9194 74.3813 82.0454 73.7187 82.2974 73.112C82.5587 72.5053 82.9181 71.978 83.3754 71.53C83.8421 71.082 84.3881 70.7367 85.0134 70.494C85.6387 70.242 86.3201 70.116 87.0574 70.116C87.7667 70.116 88.4341 70.2373 89.0594 70.48C89.6847 70.7133 90.2121 71.068 90.6414 71.544L89.9834 72.202C89.5821 71.7913 89.1387 71.4973 88.6534 71.32C88.1681 71.1333 87.6454 71.04 87.0854 71.04C86.4974 71.04 85.9514 71.1427 85.4474 71.348C84.9434 71.544 84.5047 71.8287 84.1314 72.202C83.7581 72.566 83.4641 72.9953 83.2494 73.49C83.0441 73.9753 82.9414 74.512 82.9414 75.1C82.9414 75.688 83.0441 76.2293 83.2494 76.724C83.4641 77.2093 83.7581 77.6387 84.1314 78.012C84.5047 78.376 84.9434 78.6607 85.4474 78.866C85.9514 79.062 86.4974 79.16 87.0854 79.16C87.6454 79.16 88.1681 79.0667 88.6534 78.88C89.1387 78.6933 89.5821 78.3947 89.9834 77.984L90.6414 78.642C90.2121 79.118 89.6847 79.4773 89.0594 79.72C88.4341 79.9627 87.7621 80.084 87.0434 80.084ZM92.5032 80V72.65H93.4552V74.652L93.3572 74.302C93.5625 73.742 93.9079 73.3173 94.3932 73.028C94.8785 72.7293 95.4805 72.58 96.1992 72.58V73.546C96.1619 73.546 96.1245 73.546 96.0872 73.546C96.0499 73.5367 96.0125 73.532 95.9752 73.532C95.2005 73.532 94.5939 73.77 94.1552 74.246C93.7165 74.7127 93.4972 75.38 93.4972 76.248V80H92.5032ZM101.067 80.07C100.301 80.07 99.6293 79.9113 99.0506 79.594C98.4719 79.2673 98.0193 78.824 97.6926 78.264C97.3659 77.6947 97.2026 77.046 97.2026 76.318C97.2026 75.59 97.3566 74.946 97.6646 74.386C97.9819 73.826 98.4113 73.3873 98.9526 73.07C99.5033 72.7433 100.119 72.58 100.801 72.58C101.491 72.58 102.103 72.7387 102.635 73.056C103.176 73.364 103.601 73.8027 103.909 74.372C104.217 74.932 104.371 75.5807 104.371 76.318C104.371 76.3647 104.366 76.416 104.357 76.472C104.357 76.5187 104.357 76.57 104.357 76.626H97.9586V75.884H103.825L103.433 76.178C103.433 75.646 103.316 75.1747 103.083 74.764C102.859 74.344 102.551 74.0173 102.159 73.784C101.767 73.5507 101.314 73.434 100.801 73.434C100.297 73.434 99.8439 73.5507 99.4426 73.784C99.0413 74.0173 98.7286 74.344 98.5046 74.764C98.2806 75.184 98.1686 75.6647 98.1686 76.206V76.36C98.1686 76.92 98.2899 77.4147 98.5326 77.844C98.7846 78.264 99.1299 78.5953 99.5686 78.838C100.017 79.0713 100.525 79.188 101.095 79.188C101.543 79.188 101.958 79.1087 102.341 78.95C102.733 78.7913 103.069 78.5487 103.349 78.222L103.909 78.866C103.582 79.258 103.171 79.5567 102.677 79.762C102.191 79.9673 101.655 80.07 101.067 80.07ZM110.795 80V78.376L110.753 78.11V75.394C110.753 74.7687 110.575 74.288 110.221 73.952C109.875 73.616 109.357 73.448 108.667 73.448C108.191 73.448 107.738 73.5273 107.309 73.686C106.879 73.8447 106.515 74.0547 106.217 74.316L105.769 73.574C106.142 73.2567 106.59 73.014 107.113 72.846C107.635 72.6687 108.186 72.58 108.765 72.58C109.717 72.58 110.449 72.818 110.963 73.294C111.485 73.7607 111.747 74.4747 111.747 75.436V80H110.795ZM108.261 80.07C107.71 80.07 107.229 79.9813 106.819 79.804C106.417 79.6173 106.109 79.3653 105.895 79.048C105.68 78.7213 105.573 78.348 105.573 77.928C105.573 77.5453 105.661 77.2 105.839 76.892C106.025 76.5747 106.324 76.3227 106.735 76.136C107.155 75.94 107.715 75.842 108.415 75.842H110.949V76.584H108.443C107.733 76.584 107.239 76.71 106.959 76.962C106.688 77.214 106.553 77.5267 106.553 77.9C106.553 78.32 106.716 78.656 107.043 78.908C107.369 79.16 107.827 79.286 108.415 79.286C108.975 79.286 109.455 79.16 109.857 78.908C110.267 78.6467 110.566 78.2733 110.753 77.788L110.977 78.474C110.79 78.9593 110.463 79.3467 109.997 79.636C109.539 79.9253 108.961 80.07 108.261 80.07ZM116.771 80.07C116.08 80.07 115.548 79.8833 115.175 79.51C114.801 79.1367 114.615 78.6093 114.615 77.928V71.026H115.609V77.872C115.609 78.3013 115.716 78.6327 115.931 78.866C116.155 79.0993 116.472 79.216 116.883 79.216C117.321 79.216 117.685 79.09 117.975 78.838L118.325 79.552C118.129 79.7293 117.891 79.86 117.611 79.944C117.34 80.028 117.06 80.07 116.771 80.07ZM113.299 73.476V72.65H117.849V73.476H113.299ZM122.996 80.07C122.231 80.07 121.559 79.9113 120.98 79.594C120.402 79.2673 119.949 78.824 119.622 78.264C119.296 77.6947 119.132 77.046 119.132 76.318C119.132 75.59 119.286 74.946 119.594 74.386C119.912 73.826 120.341 73.3873 120.882 73.07C121.433 72.7433 122.049 72.58 122.73 72.58C123.421 72.58 124.032 72.7387 124.564 73.056C125.106 73.364 125.53 73.8027 125.838 74.372C126.146 74.932 126.3 75.5807 126.3 76.318C126.3 76.3647 126.296 76.416 126.286 76.472C126.286 76.5187 126.286 76.57 126.286 76.626H119.888V75.884H125.754L125.362 76.178C125.362 75.646 125.246 75.1747 125.012 74.764C124.788 74.344 124.48 74.0173 124.088 73.784C123.696 73.5507 123.244 73.434 122.73 73.434C122.226 73.434 121.774 73.5507 121.372 73.784C120.971 74.0173 120.658 74.344 120.434 74.764C120.21 75.184 120.098 75.6647 120.098 76.206V76.36C120.098 76.92 120.22 77.4147 120.462 77.844C120.714 78.264 121.06 78.5953 121.498 78.838C121.946 79.0713 122.455 79.188 123.024 79.188C123.472 79.188 123.888 79.1087 124.27 78.95C124.662 78.7913 124.998 78.5487 125.278 78.222L125.838 78.866C125.512 79.258 125.101 79.5567 124.606 79.762C124.121 79.9673 123.584 80.07 122.996 80.07ZM131.25 80.07C130.55 80.07 129.92 79.9113 129.36 79.594C128.809 79.2767 128.375 78.838 128.058 78.278C127.74 77.7087 127.582 77.0553 127.582 76.318C127.582 75.5713 127.74 74.918 128.058 74.358C128.375 73.798 128.809 73.364 129.36 73.056C129.92 72.7387 130.55 72.58 131.25 72.58C131.894 72.58 132.468 72.7247 132.972 73.014C133.485 73.3033 133.891 73.728 134.19 74.288C134.498 74.8387 134.651 75.5153 134.651 76.318C134.651 77.1113 134.502 77.788 134.204 78.348C133.905 78.908 133.499 79.3373 132.986 79.636C132.482 79.9253 131.903 80.07 131.25 80.07ZM131.32 79.188C131.842 79.188 132.309 79.0713 132.72 78.838C133.14 78.5953 133.466 78.2593 133.7 77.83C133.942 77.3913 134.064 76.8873 134.064 76.318C134.064 75.7393 133.942 75.2353 133.7 74.806C133.466 74.3767 133.14 74.0453 132.72 73.812C132.309 73.5693 131.842 73.448 131.32 73.448C130.806 73.448 130.344 73.5693 129.934 73.812C129.523 74.0453 129.196 74.3767 128.954 74.806C128.711 75.2353 128.59 75.7393 128.59 76.318C128.59 76.8873 128.711 77.3913 128.954 77.83C129.196 78.2593 129.523 78.5953 129.934 78.838C130.344 79.0713 130.806 79.188 131.32 79.188ZM134.092 80V77.788L134.19 76.304L134.05 74.82V69.612H135.044V80H134.092ZM141.686 80V70.2H145.914C147.006 70.2 147.851 70.4193 148.448 70.858C149.055 71.2967 149.358 71.9173 149.358 72.72C149.358 73.252 149.232 73.7 148.98 74.064C148.737 74.428 148.401 74.7033 147.972 74.89C147.552 75.0767 147.09 75.17 146.586 75.17L146.824 74.834C147.449 74.834 147.986 74.932 148.434 75.128C148.891 75.3147 149.246 75.5993 149.498 75.982C149.75 76.3553 149.876 76.822 149.876 77.382C149.876 78.2127 149.568 78.8567 148.952 79.314C148.345 79.7713 147.426 80 146.194 80H141.686ZM142.722 79.146H146.18C147.039 79.146 147.697 79.0013 148.154 78.712C148.611 78.4133 148.84 77.942 148.84 77.298C148.84 76.6633 148.611 76.2013 148.154 75.912C147.697 75.6133 147.039 75.464 146.18 75.464H142.61V74.61H145.844C146.628 74.61 147.235 74.4607 147.664 74.162C148.103 73.8633 148.322 73.42 148.322 72.832C148.322 72.2347 148.103 71.7913 147.664 71.502C147.235 71.2033 146.628 71.054 145.844 71.054H142.722V79.146ZM152.087 82.786C151.741 82.786 151.41 82.73 151.093 82.618C150.785 82.506 150.519 82.338 150.295 82.114L150.757 81.372C150.943 81.5493 151.144 81.6847 151.359 81.778C151.583 81.8807 151.83 81.932 152.101 81.932C152.427 81.932 152.707 81.8387 152.941 81.652C153.183 81.4747 153.412 81.1573 153.627 80.7L154.103 79.622L154.215 79.468L157.239 72.65H158.219L154.537 80.882C154.331 81.358 154.103 81.736 153.851 82.016C153.608 82.296 153.342 82.492 153.053 82.604C152.763 82.7253 152.441 82.786 152.087 82.786ZM154.047 80.21L150.659 72.65H151.695L154.691 79.398L154.047 80.21ZM164.388 77.564L164.346 76.304L170.282 70.2H171.472L167.146 74.736L166.558 75.366L164.388 77.564ZM163.492 80V70.2H164.528V80H163.492ZM170.534 80L166.306 75.128L167.006 74.372L171.766 80H170.534ZM176.016 80.07C175.25 80.07 174.578 79.9113 174 79.594C173.421 79.2673 172.968 78.824 172.642 78.264C172.315 77.6947 172.152 77.046 172.152 76.318C172.152 75.59 172.306 74.946 172.614 74.386C172.931 73.826 173.36 73.3873 173.902 73.07C174.452 72.7433 175.068 72.58 175.75 72.58C176.44 72.58 177.052 72.7387 177.584 73.056C178.125 73.364 178.55 73.8027 178.858 74.372C179.166 74.932 179.32 75.5807 179.32 76.318C179.32 76.3647 179.315 76.416 179.306 76.472C179.306 76.5187 179.306 76.57 179.306 76.626H172.908V75.884H178.774L178.382 76.178C178.382 75.646 178.265 75.1747 178.032 74.764C177.808 74.344 177.5 74.0173 177.108 73.784C176.716 73.5507 176.263 73.434 175.75 73.434C175.246 73.434 174.793 73.5507 174.392 73.784C173.99 74.0173 173.678 74.344 173.454 74.764C173.23 75.184 173.118 75.6647 173.118 76.206V76.36C173.118 76.92 173.239 77.4147 173.482 77.844C173.734 78.264 174.079 78.5953 174.518 78.838C174.966 79.0713 175.474 79.188 176.044 79.188C176.492 79.188 176.907 79.1087 177.29 78.95C177.682 78.7913 178.018 78.5487 178.298 78.222L178.858 78.866C178.531 79.258 178.12 79.5567 177.626 79.762C177.14 79.9673 176.604 80.07 176.016 80.07ZM181.343 80V69.612H182.337V80H181.343ZM188.099 80.07C187.389 80.07 186.75 79.9113 186.181 79.594C185.621 79.2673 185.177 78.824 184.851 78.264C184.524 77.6947 184.361 77.046 184.361 76.318C184.361 75.5807 184.524 74.932 184.851 74.372C185.177 73.812 185.621 73.3733 186.181 73.056C186.741 72.7387 187.38 72.58 188.099 72.58C188.827 72.58 189.471 72.7387 190.031 73.056C190.6 73.3733 191.043 73.812 191.361 74.372C191.687 74.932 191.851 75.5807 191.851 76.318C191.851 77.046 191.687 77.6947 191.361 78.264C191.043 78.824 190.6 79.2673 190.031 79.594C189.461 79.9113 188.817 80.07 188.099 80.07ZM188.099 79.188C188.631 79.188 189.102 79.0713 189.513 78.838C189.923 78.5953 190.245 78.2593 190.479 77.83C190.721 77.3913 190.843 76.8873 190.843 76.318C190.843 75.7393 190.721 75.2353 190.479 74.806C190.245 74.3767 189.923 74.0453 189.513 73.812C189.102 73.5693 188.635 73.448 188.113 73.448C187.59 73.448 187.123 73.5693 186.713 73.812C186.302 74.0453 185.975 74.3767 185.733 74.806C185.49 75.2353 185.369 75.7393 185.369 76.318C185.369 76.8873 185.49 77.3913 185.733 77.83C185.975 78.2593 186.302 78.5953 186.713 78.838C187.123 79.0713 187.585 79.188 188.099 79.188ZM193.88 80V72.65H194.832V74.638L194.678 74.288C194.902 73.756 195.261 73.3407 195.756 73.042C196.26 72.734 196.853 72.58 197.534 72.58C198.253 72.58 198.864 72.762 199.368 73.126C199.872 73.4807 200.199 74.0173 200.348 74.736L199.956 74.582C200.171 73.9847 200.549 73.504 201.09 73.14C201.641 72.7667 202.299 72.58 203.064 72.58C203.661 72.58 204.179 72.6967 204.618 72.93C205.066 73.154 205.411 73.4993 205.654 73.966C205.906 74.4327 206.032 75.0207 206.032 75.73V80H205.038V75.828C205.038 75.0533 204.851 74.47 204.478 74.078C204.114 73.6767 203.596 73.476 202.924 73.476C202.42 73.476 201.981 73.5833 201.608 73.798C201.244 74.0033 200.959 74.3067 200.754 74.708C200.558 75.1 200.46 75.576 200.46 76.136V80H199.466V75.828C199.466 75.0533 199.279 74.47 198.906 74.078C198.533 73.6767 198.01 73.476 197.338 73.476C196.843 73.476 196.409 73.5833 196.036 73.798C195.663 74.0033 195.373 74.3067 195.168 74.708C194.972 75.1 194.874 75.576 194.874 76.136V80H193.88ZM212.522 80.07C211.887 80.07 211.313 79.9253 210.8 79.636C210.286 79.3373 209.876 78.9127 209.568 78.362C209.269 77.802 209.12 77.1207 209.12 76.318C209.12 75.5153 209.269 74.8387 209.568 74.288C209.866 73.728 210.272 73.3033 210.786 73.014C211.299 72.7247 211.878 72.58 212.522 72.58C213.222 72.58 213.847 72.7387 214.398 73.056C214.958 73.364 215.396 73.8027 215.714 74.372C216.031 74.932 216.19 75.5807 216.19 76.318C216.19 77.0647 216.031 77.718 215.714 78.278C215.396 78.838 214.958 79.2767 214.398 79.594C213.847 79.9113 213.222 80.07 212.522 80.07ZM208.728 82.716V72.65H209.68V74.862L209.582 76.332L209.722 77.816V82.716H208.728ZM212.452 79.188C212.974 79.188 213.441 79.0713 213.852 78.838C214.262 78.5953 214.589 78.2593 214.832 77.83C215.074 77.3913 215.196 76.8873 215.196 76.318C215.196 75.7487 215.074 75.2493 214.832 74.82C214.589 74.3907 214.262 74.0547 213.852 73.812C213.441 73.5693 212.974 73.448 212.452 73.448C211.929 73.448 211.458 73.5693 211.038 73.812C210.627 74.0547 210.3 74.3907 210.058 74.82C209.824 75.2493 209.708 75.7487 209.708 76.318C209.708 76.8873 209.824 77.3913 210.058 77.83C210.3 78.2593 210.627 78.5953 211.038 78.838C211.458 79.0713 211.929 79.188 212.452 79.188ZM221.212 80.07C220.503 80.07 219.863 79.9113 219.294 79.594C218.734 79.2673 218.291 78.824 217.964 78.264C217.637 77.6947 217.474 77.046 217.474 76.318C217.474 75.5807 217.637 74.932 217.964 74.372C218.291 73.812 218.734 73.3733 219.294 73.056C219.854 72.7387 220.493 72.58 221.212 72.58C221.94 72.58 222.584 72.7387 223.144 73.056C223.713 73.3733 224.157 73.812 224.474 74.372C224.801 74.932 224.964 75.5807 224.964 76.318C224.964 77.046 224.801 77.6947 224.474 78.264C224.157 78.824 223.713 79.2673 223.144 79.594C222.575 79.9113 221.931 80.07 221.212 80.07ZM221.212 79.188C221.744 79.188 222.215 79.0713 222.626 78.838C223.037 78.5953 223.359 78.2593 223.592 77.83C223.835 77.3913 223.956 76.8873 223.956 76.318C223.956 75.7393 223.835 75.2353 223.592 74.806C223.359 74.3767 223.037 74.0453 222.626 73.812C222.215 73.5693 221.749 73.448 221.226 73.448C220.703 73.448 220.237 73.5693 219.826 73.812C219.415 74.0453 219.089 74.3767 218.846 74.806C218.603 75.2353 218.482 75.7393 218.482 76.318C218.482 76.8873 218.603 77.3913 218.846 77.83C219.089 78.2593 219.415 78.5953 219.826 78.838C220.237 79.0713 220.699 79.188 221.212 79.188ZM227.777 78.096L227.805 76.822L232.383 72.65H233.601L230.367 75.744L229.807 76.22L227.777 78.096ZM226.993 80V69.612H227.987V80H226.993ZM232.691 80L229.625 76.178L230.269 75.408L233.909 80H232.691ZM238.185 80V79.286L242.259 75.296C242.632 74.932 242.912 74.6147 243.099 74.344C243.285 74.064 243.411 73.8027 243.477 73.56C243.542 73.3173 243.575 73.0887 243.575 72.874C243.575 72.3047 243.379 71.8567 242.987 71.53C242.604 71.2033 242.035 71.04 241.279 71.04C240.7 71.04 240.187 71.1287 239.739 71.306C239.3 71.4833 238.922 71.7587 238.605 72.132L237.891 71.516C238.273 71.068 238.763 70.7227 239.361 70.48C239.958 70.2373 240.625 70.116 241.363 70.116C242.025 70.116 242.599 70.2233 243.085 70.438C243.57 70.6433 243.943 70.9467 244.205 71.348C244.475 71.7493 244.611 72.2207 244.611 72.762C244.611 73.0793 244.564 73.392 244.471 73.7C244.387 74.008 244.228 74.3347 243.995 74.68C243.771 75.016 243.439 75.3987 243.001 75.828L239.263 79.496L238.983 79.104H245.059V80H238.185Z" fill="#FF7300"/>
</svg>
